<svg xmlns="http://www.w3.org/2000/svg" width="173.893" height="108.815" viewBox="0 0 173.893 108.815">
  <g id="Сгруппировать_137" data-name="Сгруппировать 137" transform="translate(-519 -13.8)">
    <path id="Контур_800" data-name="Контур 800" d="M521.8,121.915c-.35-.35-.35-.35-.35-.7v-1.4a27,27,0,0,0-.7-5.248v-1.05c1.049-2.1,2.1-3.849,3.149-5.948a.343.343,0,0,1,.35-.35,1.817,1.817,0,0,1,.7-1.4c2.1-1.4,3.849-3.149,5.948-4.549,3.149-2.449,6.3-4.549,9.447-6.648,1.05-.7,2.449-1.4,3.5-2.1.35-.35.7-.35,1.05-1.05.35-.35.35-.35,1.049-.35,1.4.35,3.149,0,4.549,0,1.4-.35,3.149-.35,4.548-.7h.7c-.35,0-.35-.35-.7-.35l-4.2-2.1c-1.749-.7-3.5-1.749-5.248-2.449a3.717,3.717,0,0,0-2.8-.35h-.35v.7c-.35-.35-.7-.35-1.05-.7-.35,0-.7.35-1.05.35h-.35c-.35.7-1.05.35-1.749.35h-1.05c-.35,0-.35.35-.7.35-.7.35-1.05,0-1.75,0-.35,0-.35-.35-.35-.7v-.35a1.286,1.286,0,0,1,1.05.35.343.343,0,0,1,.35-.35c.35,0,.35.35.7,0h.35a2.1,2.1,0,0,0,1.4-.35c0-.35-.35-.35-.7-.35-.35.35-.7.35-1.4,0H533.7c-.35,0-.35-.35-.7-.35h-.35c-.7-.35-1.05-.35-1.05-1.05-.35,0-.35.35-.35.7a1.285,1.285,0,0,1-.35-1.05c0-.35.35-.7,1.049-.7h1.4a1.222,1.222,0,0,0,.7-.35h.35c.7,0,1.05-.35,1.05-.7.35-.35.7-.7,1.05-.7a2.1,2.1,0,0,0,1.4-.35,2.1,2.1,0,0,1,1.4-.35c.35,0,.7-.35,1.049-.7,0-.35.35-.35.7-.35a2.622,2.622,0,0,0,1.749-.35h.35v.35c1.05-.35,1.4-1.05,2.1-1.749v.7c0,.35-.35.7-.35,1.05l-.35.35c-.35.35-.7.35-.7.7a.656.656,0,0,0,1.05,0h1.4c-.35,0-.35.35-.7.35v.7c.7,0,1.05.35,1.749.35a17.053,17.053,0,0,1,3.849,1.4c1.4.7,2.449,1.4,3.849,2.1a6.487,6.487,0,0,0,2.449.7l4.2-1.05c.7,0,.7-.35,1.049-1.05,0-1.05.35-1.749.35-2.449a4.437,4.437,0,0,0-.35-2.1,22.87,22.87,0,0,0-4.548-8.047,6.274,6.274,0,0,0-2.449-1.749,1.285,1.285,0,0,1-1.049-.35v-.35c.35,0,.35-.35,0-.35-.35-.7,0-1.05.35-1.749s.35-1.4.7-2.1c.35-1.4.35-2.449.7-3.5.35-1.749.7-3.849,1.05-5.6a79.027,79.027,0,0,1,3.849-12.946c.7-1.4,1.05-3.149,1.75-4.549a3.806,3.806,0,0,0,.35-1.749c0-.35,0-.35.35-.7s.7-.7.7-1.05c.7-1.05,1.75-2.1,2.449-3.149,2.1-2.449,3.849-5.248,5.6-7.7l1.05-1.05c.35,0,.35-.35.7-.35,2.1-1.4,3.849-2.8,5.948-4.2a8.768,8.768,0,0,1,2.449-1.4c.35-.35,1.05-.7,1.4-1.05l2.1-1.05h.7a.343.343,0,0,1-.35.35c-.35.35-.7.35-1.05.7l-.35.35c-.35.35-.7.35-.35,1.05,0,.35.35.7.35,1.05a10.476,10.476,0,0,1,1.4,3.5c.35.7.35,1.4.7,2.1a12.347,12.347,0,0,0,5.6,6.3,23.443,23.443,0,0,0,6.3,2.449,52.788,52.788,0,0,0,14.7,1.749,17.036,17.036,0,0,0,4.2-.35c.7,0,1.05-.35,1.75-.35a2.988,2.988,0,0,1,2.449,0h0a2.1,2.1,0,0,0-1.4.35h-.7a14.257,14.257,0,0,0-6.3,1.749,15.528,15.528,0,0,0-3.849,2.8,28.594,28.594,0,0,0-4.2,7,13.6,13.6,0,0,0-.7,5.248,7.052,7.052,0,0,0,1.05,3.849c1.05,2.1,1.749,4.549,2.8,6.648a14.429,14.429,0,0,0,3.5,4.549,3.025,3.025,0,0,0,2.1,1.05,1.818,1.818,0,0,1,1.4.7h0c-.7-.35-1.749,0-2.449-.35s-1.4-.35-1.75-.7c-1.4-.35-2.449-.7-3.849-1.05-1.05-.35-2.1-.35-3.149-.7a3.717,3.717,0,0,0-2.8.35,12.343,12.343,0,0,0-4.548,2.8,46.544,46.544,0,0,0-4.9,6.648,4.974,4.974,0,0,0-.7,2.1v2.449a44.617,44.617,0,0,0,.35,6.648c.7,0,1.4.35,2.1,0h.7a18.485,18.485,0,0,1,4.548-.35,15.059,15.059,0,0,1,5.6,0c5.248.35,10.147,1.749,15.045,3.149,7.347,2.1,14.7,4.9,22.043,7.348a125.255,125.255,0,0,0,12.246,3.849,38.748,38.748,0,0,0,12.6,1.4,26.8,26.8,0,0,0,19.244-8.747c1.75-1.749,3.149-3.5,4.9-5.248l1.4-1.4.35-.35h0c0,.35-.35.35-.35.7l-4.2,5.248a7.638,7.638,0,0,0-1.4,1.749,25.46,25.46,0,0,1-15.045,9.447,56.516,56.516,0,0,1-10.846.7,71.086,71.086,0,0,1-17.145-3.5,179.094,179.094,0,0,0-19.594-5.248c-3.849-.7-7.7-1.4-11.546-1.749a91.683,91.683,0,0,0-9.8-.35,47.414,47.414,0,0,0-7,.7c-1.05,0-1.749.35-2.8.35h-.35a11.9,11.9,0,0,1-3.5.35h-1.05c.35.7.7,1.749,1.05,2.449,0,.35.35.35.35.7.35.35.35.35.7.35a.343.343,0,0,0,.35-.35,4.141,4.141,0,0,1,3.5-.35c.35.35.7.35,1.4.35s1.05,0,1.4-.7h0q.524-1.05,1.049,0a12.274,12.274,0,0,0,2.8,1.749,3.154,3.154,0,0,0,1.749.35h.7a2.1,2.1,0,0,1,1.4.35c0-.35,0-.35.35-.7a1.285,1.285,0,0,1,.35,1.05,2.1,2.1,0,0,1-.35,1.4,4.827,4.827,0,0,1-1.4,1.05h-.35a1.286,1.286,0,0,1-1.05-.35,1.924,1.924,0,0,0-1.749-1.05,6.488,6.488,0,0,0-2.449-.7h-1.749c-1.749.35-3.5.7-4.9,1.05a5.955,5.955,0,0,1-2.449.35,4.858,4.858,0,0,1-3.849-.7c-1.4-.7-2.449-1.05-3.849-1.749-.35,0-.35,0-.7-.35a2.689,2.689,0,0,1-1.05.7v.7c0,.35-.35.35,0,.7-.35,0-.35.35-.7.35a3.356,3.356,0,0,1-3.5-1.05l-.7-.7-.35-.35c-.35.7-.7,1.05-.7,1.749-.35.7-.35,1.4-.7,2.1v.35c.35.7.7,1.749,1.05,2.449.35.35.35.7,1.05.7h.35c.7,0,1.75-.35,2.449-.35v-.35c.35.35.7.35,1.05.7l-.35.35a1.221,1.221,0,0,0,.35.7c.35.7,0,1.4-.7,1.4-.35,0-.7.35-1.05.35h-.7c-.7-.35-1.749-.7-2.449-1.05a4.659,4.659,0,0,1-1.749-1.05c0,.35.35.7.35,1.05a16.174,16.174,0,0,0,2.449,2.449l.7.7a1.818,1.818,0,0,0,1.4.7q.525,0,1.05,1.05a3.155,3.155,0,0,1-1.749-.35,3.176,3.176,0,0,0-2.449-1.05c-.7,0-1.4-.35-2.1-.35h-.35a13.6,13.6,0,0,0-5.248-.7,26.631,26.631,0,0,0-7.348,1.05,21.092,21.092,0,0,0-7.7,3.149c-.7.7-1.4,1.05-2.1,1.749-.7.35-.7,1.05-1.05,1.749a6.049,6.049,0,0,0-.35,3.5c0,.35.35.7.35,1.05a1.818,1.818,0,0,1,.7,1.4h-.35c-.35-.35-.35-.7-.7-.7a17.879,17.879,0,0,0-10.5-8.4,12.571,12.571,0,0,0-8.747.35,21.382,21.382,0,0,0-4.9,2.449c-.7.35-1.4,1.05-2.1,1.4-.35.35-1.05.7-1.4,1.05-.7.35-1.05.7-1.05,1.4,3.149,1.05,3.149,1.05,2.8,1.749C522.149,121.565,521.8,121.565,521.8,121.915Zm15.045-40.587a1.286,1.286,0,0,0,.35,1.05c.35,0,.35-.35.7-.35l.35-.35a.343.343,0,0,0-.35-.35ZM579.88,107.22c0-.35,0-.35.35-.7a1.286,1.286,0,0,0-1.05.35A1.221,1.221,0,0,0,579.88,107.22Zm1.05-7.7c0-.35.35-.35,0,0-.35-.7-.35-.7-.7-.35A1.084,1.084,0,0,1,580.93,99.522Zm.7-1.749c-.35,0-.35-.35-.7-.35C580.93,97.773,580.93,97.773,581.63,97.773Zm25.192,1.749c-.35.35-.35.35,0,.7Z" fill="#e3ecff"/>
  </g>
</svg>
