<svg xmlns="http://www.w3.org/2000/svg" width="271.012" height="96.166" viewBox="0 0 271.012 96.166">
  <g id="Gruppe_93" data-name="Gruppe 93" transform="translate(1615.891 511.149)">
    <path id="Pfad_395" data-name="Pfad 395" d="M1.318-13.324H5.634V-11.8H4.518V-1.512a1.38,1.38,0,0,1-.092.453,4.94,4.94,0,0,1-.237.549A6.578,6.578,0,0,1,3.85.083q-.193.3-.387.593Q3,1.354,2.408,2.092L.9,1.96q.519-.791.932-1.512Q2,.141,2.171-.18t.3-.62a5.789,5.789,0,0,0,.215-.558A1.489,1.489,0,0,0,2.769-1.8v-10H1.318ZM12.357-9.105h2.936v7.594H16.3V0H13.649V-.844a4.954,4.954,0,0,1-1.34.738,4.5,4.5,0,0,1-1.551.264,3.7,3.7,0,0,1-1.244-.2,2.359,2.359,0,0,1-.949-.615,2.8,2.8,0,0,1-.6-1.059,4.919,4.919,0,0,1-.211-1.529V-7.594H6.521V-9.105H9.457v5.669A2.292,2.292,0,0,0,9.94-1.854a1.774,1.774,0,0,0,1.389.536,3.645,3.645,0,0,0,1.129-.193,4.747,4.747,0,0,0,1.121-.536V-7.594H12.357ZM25.4-.8a3.216,3.216,0,0,1-1.042.738A3.29,3.29,0,0,1,23.01.2a4.551,4.551,0,0,1-1.718-.321,3.858,3.858,0,0,1-1.38-.94A4.372,4.372,0,0,1,19-2.58a5.977,5.977,0,0,1-.33-2.061,5.56,5.56,0,0,1,.316-1.92,4.214,4.214,0,0,1,.9-1.477,4.022,4.022,0,0,1,1.4-.949A4.714,4.714,0,0,1,23.1-9.325a4.58,4.58,0,0,1,1.235.154A3.344,3.344,0,0,1,25.4-8.64v-.466h1.635V-.36a4.659,4.659,0,0,1-1.024,3.27,4.144,4.144,0,0,1-3.186,1.107,7.4,7.4,0,0,1-.993-.07,6.52,6.52,0,0,1-1.024-.224,6.434,6.434,0,0,1-.984-.391,4.339,4.339,0,0,1-.883-.58l.879-1.327a3.777,3.777,0,0,0,.6.422,4.413,4.413,0,0,0,.725.33,5.539,5.539,0,0,0,.8.215,4.384,4.384,0,0,0,.826.079,4.335,4.335,0,0,0,1.173-.141,1.7,1.7,0,0,0,.817-.5A2.268,2.268,0,0,0,25.242.87,6.232,6.232,0,0,0,25.4-.668Zm-2.18-.422a3.205,3.205,0,0,0,.738-.079,3.133,3.133,0,0,0,.606-.207,2.324,2.324,0,0,0,.479-.294,2.382,2.382,0,0,0,.356-.352V-7.137a2.729,2.729,0,0,0-1.033-.571,4.143,4.143,0,0,0-1.2-.176,2.772,2.772,0,0,0-1.09.215,2.562,2.562,0,0,0-.892.628,2.982,2.982,0,0,0-.6,1.011,3.96,3.96,0,0,0-.22,1.371,4.758,4.758,0,0,0,.211,1.485A3.091,3.091,0,0,0,21.164-2.1a2.415,2.415,0,0,0,.905.655A2.964,2.964,0,0,0,23.221-1.222Zm7.611-3.12a4.047,4.047,0,0,0,.057.708,3.663,3.663,0,0,0,.163.611A2.529,2.529,0,0,0,32.093-1.7a3.015,3.015,0,0,0,1.622.444,4.88,4.88,0,0,0,1.384-.2,6.649,6.649,0,0,0,1.411-.62l.659,1.116a7.16,7.16,0,0,1-1.8.914,5.961,5.961,0,0,1-1.881.3,4.653,4.653,0,0,1-1.709-.308,3.645,3.645,0,0,1-1.354-.914,4.267,4.267,0,0,1-.888-1.512,6.311,6.311,0,0,1-.321-2.109,6.1,6.1,0,0,1,.272-1.841A4.372,4.372,0,0,1,30.3-7.941a3.886,3.886,0,0,1,1.34-1.024A4.318,4.318,0,0,1,33.5-9.343a4.17,4.17,0,0,1,1.718.312,3.141,3.141,0,0,1,1.125.826,3.584,3.584,0,0,1,.659,1.173,6.889,6.889,0,0,1,.312,1.345q.044.334.057.677t.013.668Zm2.558-3.63a2.793,2.793,0,0,0-1,.163,2.007,2.007,0,0,0-.725.466,2.27,2.27,0,0,0-.479.743,4.466,4.466,0,0,0-.268.984h4.72a4.37,4.37,0,0,0-.163-.94,2.068,2.068,0,0,0-.391-.747,1.761,1.761,0,0,0-.677-.492A2.607,2.607,0,0,0,33.39-7.972Zm12.217,6.46H46.89V-5.669a2.172,2.172,0,0,0-.532-1.586A2.044,2.044,0,0,0,44.833-7.8a2.691,2.691,0,0,0-1.151.272,5.778,5.778,0,0,0-1.1.677v5.335h1.283V0H39.612V-1.512h1.266V-7.594H39.612V-9.105h2.9v1.072h.018a6.85,6.85,0,0,1,.62-.483,4.613,4.613,0,0,1,.69-.4,4.153,4.153,0,0,1,.751-.264,3.413,3.413,0,0,1,.822-.1,4.044,4.044,0,0,1,1.318.2,2.577,2.577,0,0,1,1,.615A2.739,2.739,0,0,1,48.371-7.4a4.66,4.66,0,0,1,.224,1.525v4.359H49.86V0H45.606ZM56.988-13.676h2.874V-1.512H61.2V0H58.228V-.747a3.179,3.179,0,0,1-1.02.7A3.3,3.3,0,0,1,55.89.2a4.551,4.551,0,0,1-1.718-.321,3.858,3.858,0,0,1-1.38-.94,4.372,4.372,0,0,1-.914-1.521,5.977,5.977,0,0,1-.33-2.061,5.56,5.56,0,0,1,.316-1.92,4.214,4.214,0,0,1,.9-1.477,4.022,4.022,0,0,1,1.4-.949,4.714,4.714,0,0,1,1.819-.338,4.678,4.678,0,0,1,1.2.145,3.192,3.192,0,0,1,1.046.505v-3.489H56.988ZM56.1-1.222a3.051,3.051,0,0,0,1.222-.215,2.821,2.821,0,0,0,.905-.646v-5.1a2.753,2.753,0,0,0-1.011-.536,4.145,4.145,0,0,0-1.169-.167,2.772,2.772,0,0,0-1.09.215,2.562,2.562,0,0,0-.892.628,2.982,2.982,0,0,0-.6,1.011,3.96,3.96,0,0,0-.22,1.371,4.758,4.758,0,0,0,.211,1.485A3.091,3.091,0,0,0,54.044-2.1a2.415,2.415,0,0,0,.905.655A2.964,2.964,0,0,0,56.1-1.222Zm6.284-12.454h2.953V-8.35A4.986,4.986,0,0,1,66.6-9.062a3.91,3.91,0,0,1,1.415-.264,3.981,3.981,0,0,1,1.644.334,3.761,3.761,0,0,1,1.288.94A4.31,4.31,0,0,1,71.789-6.6a5.615,5.615,0,0,1,.3,1.876,5.642,5.642,0,0,1-.334,1.991A4.611,4.611,0,0,1,70.827-1.2a4.059,4.059,0,0,1-1.411.989,4.54,4.54,0,0,1-1.793.347,3.991,3.991,0,0,1-1.27-.2,3.549,3.549,0,0,1-1.015-.514V0H63.7V-12.164H62.385Zm5.2,5.792a2.978,2.978,0,0,0-1.23.264,3.226,3.226,0,0,0-1.02.712v4.9a2.426,2.426,0,0,0,.826.514,3.627,3.627,0,0,0,1.371.224,2.842,2.842,0,0,0,1.081-.211,2.544,2.544,0,0,0,.914-.637,3.174,3.174,0,0,0,.633-1.059A4.2,4.2,0,0,0,70.4-4.658a3.889,3.889,0,0,0-.224-1.371A3.038,3.038,0,0,0,69.57-7.04a2.562,2.562,0,0,0-.892-.628A2.772,2.772,0,0,0,67.588-7.884Zm7.734,3.542a4.047,4.047,0,0,0,.057.708,3.663,3.663,0,0,0,.163.611A2.529,2.529,0,0,0,76.583-1.7a3.015,3.015,0,0,0,1.622.444,4.88,4.88,0,0,0,1.384-.2A6.649,6.649,0,0,0,81-2.074l.659,1.116a7.16,7.16,0,0,1-1.8.914,5.961,5.961,0,0,1-1.881.3,4.653,4.653,0,0,1-1.709-.308,3.645,3.645,0,0,1-1.354-.914,4.267,4.267,0,0,1-.888-1.512,6.311,6.311,0,0,1-.321-2.109,6.1,6.1,0,0,1,.272-1.841,4.372,4.372,0,0,1,.813-1.512,3.886,3.886,0,0,1,1.34-1.024,4.318,4.318,0,0,1,1.863-.378,4.17,4.17,0,0,1,1.718.312,3.141,3.141,0,0,1,1.125.826A3.584,3.584,0,0,1,81.5-7.031a6.889,6.889,0,0,1,.312,1.345q.044.334.057.677t.013.668Zm2.558-3.63a2.793,2.793,0,0,0-1,.163,2.007,2.007,0,0,0-.725.466,2.27,2.27,0,0,0-.479.743,4.466,4.466,0,0,0-.268.984h4.72a4.37,4.37,0,0,0-.163-.94,2.068,2.068,0,0,0-.391-.747A1.761,1.761,0,0,0,78.9-7.8,2.607,2.607,0,0,0,77.88-7.972Zm12.771.791H88.98v-.562a1.735,1.735,0,0,0-.593.11,1.841,1.841,0,0,0-.567.334,2.11,2.11,0,0,0-.461.571,2.611,2.611,0,0,0-.286.822v4.395H88.62V0H84.1V-1.512h1.257l.009-6.082H84.1V-9.105h2.909v1.257a3.648,3.648,0,0,1,.356-.523,2.489,2.489,0,0,1,.439-.422,1.95,1.95,0,0,1,.536-.281,1.95,1.95,0,0,1,.637-.1h.861q.4,0,.809.018Zm7.374-1.925h2.936v7.594h1.011V0H99.316V-.844a4.954,4.954,0,0,1-1.34.738,4.5,4.5,0,0,1-1.551.264,3.7,3.7,0,0,1-1.244-.2,2.359,2.359,0,0,1-.949-.615,2.8,2.8,0,0,1-.6-1.059,4.919,4.919,0,0,1-.211-1.529V-7.594h-1.23V-9.105h2.936v5.669a2.292,2.292,0,0,0,.483,1.582A1.774,1.774,0,0,0,97-1.318a3.645,3.645,0,0,0,1.129-.193,4.747,4.747,0,0,0,1.121-.536V-7.594H98.024Zm9.387,0h2.109v1.327h-2.109v6.267h1.424V0h-4.43V-1.512h1.371V-7.778h-1.5V-9.105h1.5v-1.424a4.383,4.383,0,0,1,.229-1.38,2.675,2.675,0,0,1,.6-.984,2.41,2.41,0,0,1,.932-.589,3.608,3.608,0,0,1,1.213-.193,7.122,7.122,0,0,1,.835.044,5.055,5.055,0,0,1,.659.119,4.472,4.472,0,0,1,.514.163q.224.088.4.176l-.5,1.169a3.072,3.072,0,0,0-.734-.255,4.151,4.151,0,0,0-.945-.105,1.483,1.483,0,0,0-1.147.453,1.9,1.9,0,0,0-.417,1.332Zm8.8,2.443a1.114,1.114,0,0,0-.171-.628,1.359,1.359,0,0,0-.444-.422,2.046,2.046,0,0,0-.606-.237,2.975,2.975,0,0,0-.65-.075,2.486,2.486,0,0,0-.646.079,1.572,1.572,0,0,0-.505.229,1.086,1.086,0,0,0-.33.365.976.976,0,0,0-.119.479.962.962,0,0,0,.277.725,2.59,2.59,0,0,0,.927.5l1.749.615a3.44,3.44,0,0,1,1.644,1.028,2.419,2.419,0,0,1,.519,1.556,2.543,2.543,0,0,1-.242,1.112,2.443,2.443,0,0,1-.686.861,3.262,3.262,0,0,1-1.068.554,4.583,4.583,0,0,1-1.389.2,3.792,3.792,0,0,1-1.731-.343,2.593,2.593,0,0,1-1.028-.905h-.914V-2.487h1.819a1.223,1.223,0,0,0,.163.646,1.3,1.3,0,0,0,.431.435,2,2,0,0,0,.606.246,3.021,3.021,0,0,0,.69.079,2.573,2.573,0,0,0,.659-.083,1.826,1.826,0,0,0,.558-.246A1.278,1.278,0,0,0,116.1-1.8a.969.969,0,0,0,.141-.519,1.058,1.058,0,0,0-.286-.747,2.467,2.467,0,0,0-.971-.554l-1.74-.65a3.716,3.716,0,0,1-1.578-.962,2.135,2.135,0,0,1-.514-1.463,2.646,2.646,0,0,1,.215-1.072,2.374,2.374,0,0,1,.624-.848,2.964,2.964,0,0,1,1-.558,4.132,4.132,0,0,1,1.345-.2,4.294,4.294,0,0,1,1.635.272,2.994,2.994,0,0,1,1.187.932h.853v1.512Zm8.824,5.818a4.713,4.713,0,0,1-1.147.791,3.207,3.207,0,0,1-1.428.308,3.442,3.442,0,0,1-1.226-.211,3.006,3.006,0,0,1-.962-.576,2.613,2.613,0,0,1-.628-.848,2.415,2.415,0,0,1-.224-1.028,2.866,2.866,0,0,1,.171-1.028,2.584,2.584,0,0,1,.457-.778,2.652,2.652,0,0,1,.668-.554,4.08,4.08,0,0,1,.8-.36,4.726,4.726,0,0,1,.853-.193,6.387,6.387,0,0,1,.831-.057q.633,0,1.063.04a7.513,7.513,0,0,1,.782.11l.009-.747a2.279,2.279,0,0,0-.141-.839,1.559,1.559,0,0,0-.4-.589,1.631,1.631,0,0,0-.611-.347,2.6,2.6,0,0,0-.8-.114,5.29,5.29,0,0,0-.791.057,5.892,5.892,0,0,0-.708.149,4.882,4.882,0,0,0-.606.211,2.784,2.784,0,0,0-.47.25L120-8.332a5.834,5.834,0,0,1,.712-.391,5.974,5.974,0,0,1,.813-.308,7.216,7.216,0,0,1,.87-.2,5.262,5.262,0,0,1,.875-.075,4.972,4.972,0,0,1,1.424.189,2.755,2.755,0,0,1,1.072.584,2.588,2.588,0,0,1,.677,1.006,4.042,4.042,0,0,1,.237,1.463l-.009,4.553h1.011V0h-2.646Zm-2.215-.272a2.743,2.743,0,0,0,.65-.079,3.249,3.249,0,0,0,.615-.215,3.227,3.227,0,0,0,.536-.316,2.471,2.471,0,0,0,.413-.374l.009-2.057h-1.9a3.322,3.322,0,0,0-.866.105,2.112,2.112,0,0,0-.677.308,1.424,1.424,0,0,0-.444.5,1.443,1.443,0,0,0-.158.686,1.408,1.408,0,0,0,.132.628,1.228,1.228,0,0,0,.374.448,1.718,1.718,0,0,0,.576.272A2.768,2.768,0,0,0,122.818-1.116ZM136.187-.8a3.216,3.216,0,0,1-1.042.738A3.29,3.29,0,0,1,133.8.2a4.551,4.551,0,0,1-1.718-.321,3.858,3.858,0,0,1-1.38-.94,4.372,4.372,0,0,1-.914-1.521,5.977,5.977,0,0,1-.33-2.061,5.56,5.56,0,0,1,.316-1.92,4.214,4.214,0,0,1,.9-1.477,4.022,4.022,0,0,1,1.4-.949,4.714,4.714,0,0,1,1.819-.338,4.58,4.58,0,0,1,1.235.154,3.344,3.344,0,0,1,1.068.532v-.466h1.635V-.36a4.659,4.659,0,0,1-1.024,3.27,4.144,4.144,0,0,1-3.186,1.107,7.4,7.4,0,0,1-.993-.07,6.52,6.52,0,0,1-1.024-.224,6.434,6.434,0,0,1-.984-.391,4.339,4.339,0,0,1-.883-.58l.879-1.327a3.777,3.777,0,0,0,.6.422,4.413,4.413,0,0,0,.725.33,5.539,5.539,0,0,0,.8.215,4.384,4.384,0,0,0,.826.079,4.335,4.335,0,0,0,1.173-.141,1.7,1.7,0,0,0,.817-.5,2.268,2.268,0,0,0,.479-.962,6.232,6.232,0,0,0,.158-1.538Zm-2.18-.422a3.205,3.205,0,0,0,.738-.079,3.133,3.133,0,0,0,.606-.207,2.324,2.324,0,0,0,.479-.294,2.382,2.382,0,0,0,.356-.352V-7.137a2.729,2.729,0,0,0-1.033-.571,4.143,4.143,0,0,0-1.2-.176,2.772,2.772,0,0,0-1.09.215,2.562,2.562,0,0,0-.892.628,2.982,2.982,0,0,0-.6,1.011,3.96,3.96,0,0,0-.22,1.371,4.758,4.758,0,0,0,.211,1.485A3.091,3.091,0,0,0,131.95-2.1a2.415,2.415,0,0,0,.905.655A2.964,2.964,0,0,0,134.007-1.222Zm7.611-3.12a4.047,4.047,0,0,0,.057.708,3.663,3.663,0,0,0,.163.611A2.529,2.529,0,0,0,142.879-1.7a3.015,3.015,0,0,0,1.622.444,4.88,4.88,0,0,0,1.384-.2,6.649,6.649,0,0,0,1.411-.62l.659,1.116a7.16,7.16,0,0,1-1.8.914,5.961,5.961,0,0,1-1.881.3,4.653,4.653,0,0,1-1.709-.308,3.645,3.645,0,0,1-1.354-.914,4.267,4.267,0,0,1-.888-1.512A6.311,6.311,0,0,1,140-4.588a6.1,6.1,0,0,1,.272-1.841,4.372,4.372,0,0,1,.813-1.512,3.886,3.886,0,0,1,1.34-1.024,4.318,4.318,0,0,1,1.863-.378,4.17,4.17,0,0,1,1.718.312,3.141,3.141,0,0,1,1.125.826,3.584,3.584,0,0,1,.659,1.173,6.889,6.889,0,0,1,.312,1.345q.044.334.057.677t.013.668Zm2.558-3.63a2.793,2.793,0,0,0-1,.163,2.007,2.007,0,0,0-.725.466,2.27,2.27,0,0,0-.479.743,4.466,4.466,0,0,0-.268.984h4.72a4.37,4.37,0,0,0-.163-.94,2.068,2.068,0,0,0-.391-.747A1.761,1.761,0,0,0,145.2-7.8,2.607,2.607,0,0,0,144.176-7.972Zm12.217,6.46h1.283V-5.669a2.172,2.172,0,0,0-.532-1.586,2.044,2.044,0,0,0-1.525-.541,2.691,2.691,0,0,0-1.151.272,5.778,5.778,0,0,0-1.1.677v5.335h1.283V0H150.4V-1.512h1.266V-7.594H150.4V-9.105h2.9v1.072h.018a6.85,6.85,0,0,1,.62-.483,4.613,4.613,0,0,1,.69-.4,4.153,4.153,0,0,1,.751-.264,3.413,3.413,0,0,1,.822-.1,4.044,4.044,0,0,1,1.318.2,2.577,2.577,0,0,1,1,.615,2.739,2.739,0,0,1,.637,1.059,4.66,4.66,0,0,1,.224,1.525v4.359h1.266V0h-4.254Zm8.648-7.594h2.136v1.327h-2.153L165-2.522a2.563,2.563,0,0,0,.123.87.774.774,0,0,0,.4.461,1.435,1.435,0,0,0,.615.127,2.869,2.869,0,0,0,.65-.066,3.119,3.119,0,0,0,.615-.224l.378,1.1a4.468,4.468,0,0,1-.888.347,4.193,4.193,0,0,1-1.1.127,3.361,3.361,0,0,1-1.042-.145A1.672,1.672,0,0,1,164-.413a2.2,2.2,0,0,1-.453-.918,5.83,5.83,0,0,1-.149-1.437l.026-5.01h-1.45V-9.105h1.468v-2.18l1.6-.756Zm9.545,0h2.936v7.594h1.011V0h-2.654V-.844a4.954,4.954,0,0,1-1.34.738,4.5,4.5,0,0,1-1.551.264,3.7,3.7,0,0,1-1.244-.2,2.359,2.359,0,0,1-.949-.615,2.8,2.8,0,0,1-.6-1.059,4.919,4.919,0,0,1-.211-1.529V-7.594h-1.23V-9.105h2.936v5.669a2.292,2.292,0,0,0,.483,1.582,1.774,1.774,0,0,0,1.389.536,3.645,3.645,0,0,0,1.129-.193,4.747,4.747,0,0,0,1.121-.536V-7.594h-1.222Zm12.929,1.925h-1.67v-.562a1.735,1.735,0,0,0-.593.11,1.841,1.841,0,0,0-.567.334,2.11,2.11,0,0,0-.461.571,2.611,2.611,0,0,0-.286.822v4.395h1.547V0h-4.518V-1.512h1.257l.009-6.082h-1.266V-9.105h2.909v1.257a3.648,3.648,0,0,1,.356-.523,2.489,2.489,0,0,1,.439-.422,1.95,1.95,0,0,1,.536-.281,1.95,1.95,0,0,1,.637-.1h.861q.4,0,.809.018Zm23.036-6.144h4.324V-11.8h-1.16L209.909,0H207.22l-3.612-11.61L200.276,0h-2.663l-3.885-11.8h-1.178v-1.521h4.324V-11.8h-1.16L198.94-1.564l3.4-11.76h2.628l3.621,11.76L211.878-11.8h-1.327Zm5.168,8.771a5.618,5.618,0,0,1,.347-1.969,4.515,4.515,0,0,1,.945-1.525,4.13,4.13,0,0,1,1.441-.98,4.792,4.792,0,0,1,1.837-.343,4.849,4.849,0,0,1,1.85.343,4.089,4.089,0,0,1,1.437.971,4.436,4.436,0,0,1,.932,1.516,5.552,5.552,0,0,1,.334,1.969,5.536,5.536,0,0,1-.334,1.956,4.573,4.573,0,0,1-.932,1.534,4.154,4.154,0,0,1-1.437,1,4.691,4.691,0,0,1-1.85.356,4.757,4.757,0,0,1-1.863-.352,4.142,4.142,0,0,1-1.433-.989,4.533,4.533,0,0,1-.932-1.525A5.66,5.66,0,0,1,215.719-4.553Zm1.731,0a4.218,4.218,0,0,0,.224,1.415,3.247,3.247,0,0,0,.615,1.077,2.768,2.768,0,0,0,.905.686,2.54,2.54,0,0,0,1.094.242,2.7,2.7,0,0,0,1.129-.237,2.645,2.645,0,0,0,.91-.681,3.231,3.231,0,0,0,.606-1.077,4.324,4.324,0,0,0,.22-1.424,4.521,4.521,0,0,0-.22-1.468,3.111,3.111,0,0,0-.6-1.072,2.475,2.475,0,0,0-.91-.65,2.918,2.918,0,0,0-1.134-.22,2.755,2.755,0,0,0-1.094.22,2.586,2.586,0,0,0-.905.65,3.085,3.085,0,0,0-.615,1.072A4.44,4.44,0,0,0,217.45-4.553Zm15.706-2.628h-1.67v-.562a1.735,1.735,0,0,0-.593.11,1.841,1.841,0,0,0-.567.334,2.11,2.11,0,0,0-.461.571,2.611,2.611,0,0,0-.286.822v4.395h1.547V0h-4.518V-1.512h1.257l.009-6.082h-1.266V-9.105h2.909v1.257a3.648,3.648,0,0,1,.356-.523,2.489,2.489,0,0,1,.439-.422,1.95,1.95,0,0,1,.536-.281,1.95,1.95,0,0,1,.637-.1h.861q.4,0,.809.018Zm1.89-1.925h2.9v1.063h.018a7.246,7.246,0,0,1,.628-.479,4.856,4.856,0,0,1,.69-.391,4.153,4.153,0,0,1,.751-.264,3.376,3.376,0,0,1,.813-.1,3.678,3.678,0,0,1,1.7.365,2.48,2.48,0,0,1,1.1,1.138q.334-.3.7-.576a5.161,5.161,0,0,1,.769-.479,4.612,4.612,0,0,1,.839-.325,3.374,3.374,0,0,1,.914-.123,4.073,4.073,0,0,1,1.327.2,2.577,2.577,0,0,1,1,.615,2.656,2.656,0,0,1,.628,1.059,4.835,4.835,0,0,1,.215,1.525v4.359h1.266V0h-4.254V-1.512h1.283V-5.669a2.183,2.183,0,0,0-.527-1.586,2.029,2.029,0,0,0-1.521-.541,2.884,2.884,0,0,0-1.2.281,3.669,3.669,0,0,0-1.055.712v5.291h1.257V0H241.04V-1.512h1.283V-5.669a2.172,2.172,0,0,0-.532-1.586,2.044,2.044,0,0,0-1.525-.541,2.691,2.691,0,0,0-1.151.272,5.778,5.778,0,0,0-1.1.677v5.335H239.3V0h-4.254V-1.512h1.266V-7.594h-1.266Zm23.273,2.443a1.114,1.114,0,0,0-.171-.628,1.359,1.359,0,0,0-.444-.422,2.046,2.046,0,0,0-.606-.237,2.975,2.975,0,0,0-.65-.075,2.486,2.486,0,0,0-.646.079,1.572,1.572,0,0,0-.505.229,1.086,1.086,0,0,0-.33.365.976.976,0,0,0-.119.479.962.962,0,0,0,.277.725,2.59,2.59,0,0,0,.927.5l1.749.615a3.44,3.44,0,0,1,1.644,1.028,2.419,2.419,0,0,1,.519,1.556,2.543,2.543,0,0,1-.242,1.112,2.443,2.443,0,0,1-.686.861,3.262,3.262,0,0,1-1.068.554,4.583,4.583,0,0,1-1.389.2,3.792,3.792,0,0,1-1.731-.343,2.593,2.593,0,0,1-1.028-.905h-.914V-2.487h1.819a1.223,1.223,0,0,0,.163.646,1.3,1.3,0,0,0,.431.435,2,2,0,0,0,.606.246,3.021,3.021,0,0,0,.69.079,2.573,2.573,0,0,0,.659-.083,1.826,1.826,0,0,0,.558-.246,1.278,1.278,0,0,0,.382-.391.969.969,0,0,0,.141-.519,1.058,1.058,0,0,0-.286-.747,2.467,2.467,0,0,0-.971-.554l-1.74-.65a3.716,3.716,0,0,1-1.578-.962,2.135,2.135,0,0,1-.514-1.463,2.646,2.646,0,0,1,.215-1.072,2.374,2.374,0,0,1,.624-.848,2.964,2.964,0,0,1,1-.558,4.132,4.132,0,0,1,1.345-.2,4.294,4.294,0,0,1,1.635.272,2.994,2.994,0,0,1,1.187.932h.853v1.512Z" transform="translate(-1605 -419)" fill="#fff"/>
    <g id="Gruppe_83" data-name="Gruppe 83" transform="translate(-1615.891 -511.149)">
      <path id="Pfad_345" data-name="Pfad 345" d="M112.135,104.622c3.516-.041,6.845-1.946,10.331-2.291a29.273,29.273,0,0,1,2.939-.3c.958,0,1.912.189,2.87.28,3.393.319,6.633,2.056,10.046,2.167h.011c8.068-.183,12.555-4.814,12.555-13.007l-5.446,3.941,8.716-18.059,7.96,18.129-4.762-4.052c0,12.514-6.758,19.562-18.907,19.779a.023.023,0,0,1-.018,0c-3.47-.082-6.756-2.177-10.2-2.56-.94-.107-1.882-.317-2.82-.331v0a25.608,25.608,0,0,0-2.93.342c-3.514.4-6.865,2.624-10.411,2.624v0c-3.541,0-6.89-2.225-10.4-2.624a28.286,28.286,0,0,0-2.82-.34v0a25.611,25.611,0,0,0-2.93.342c-3.514.4-6.865,2.624-10.413,2.624H85.5c-3.548,0-6.9-2.225-10.413-2.624-.922-.107-1.844-.317-2.765-.34v0a25.849,25.849,0,0,0-2.943.342c-3.532.4-6.9,2.626-10.466,2.626v.027c-12.72-.011-19.806-7.1-19.806-19.838V58.042l4.44-14.009.021.007,4.447,14.032,5.442-19.9h5.207v0h5.248l5.442,19.9L73.8,44.035l.018-.007,4.442,14.011V82.822c0,4.538.9,5.861,4.013,5.875v.011c3.151,0,4.059-1.248,4.059-5.578l-.021-6.29c0-1.531.655-1.878,3.648-1.885,2.7.007,3.288.372,3.288,1.99V83.13c0,9.63-2.464,12.4-11.013,12.4v-.011c-8.449-.027-10.89-2.888-10.89-12.7V74.843c0-5.045-4.762-9.126-10.646-9.126-2.795,0-4.351,0-4.351,0v0c-5.763.119-10.386,4.155-10.386,9.124V91.5h0c0,8.4,4.645,13.073,12.978,13.073l0,.062c3.523-.027,6.852-2.225,10.342-2.621a25.553,25.553,0,0,1,2.923-.342v-.007a25.573,25.573,0,0,1,2.927.342c3.5.4,6.836,2.606,10.367,2.624,3.527-.021,6.865-2.227,10.365-2.624a25.436,25.436,0,0,1,2.923-.342v-.007a25.628,25.628,0,0,1,2.927.342C105.236,102.4,108.587,104.622,112.135,104.622Z" transform="translate(-39.109 -38.167)" fill="#fff"/>
      <path id="Pfad_346" data-name="Pfad 346" d="M401.613,198.406l7.936,21.493H403.7l-1.358-3.746h-7.567l-1.453,3.746h-5.791l8.109-21.493Zm-.744,13.5-2.283-6.867-2.311,6.867Z" transform="translate(-308.679 -162.408)" fill="#fff"/>
      <path id="Pfad_347" data-name="Pfad 347" d="M320.313,213.094a6.6,6.6,0,0,1,.223,1.75,6.409,6.409,0,0,1-.358,2.193,5.015,5.015,0,0,1-1.074,1.742,6.421,6.421,0,0,1-2.614,1.647,11.256,11.256,0,0,1-3.7.55h-9.359V199.405h8.693a6.938,6.938,0,0,1,4.734,1.406,5.369,5.369,0,0,1,1.576,4.219,6.523,6.523,0,0,1-.173,1.555,4.49,4.49,0,0,1-.519,1.275,4.093,4.093,0,0,1-.732.894,5.567,5.567,0,0,1-1.045.749,7.741,7.741,0,0,1,2.271.787,3.925,3.925,0,0,1,1.415,1.282A5.54,5.54,0,0,1,320.313,213.094Zm-6.381,3.113a1.868,1.868,0,0,0,1-1.738,2.086,2.086,0,0,0-2.024-2.212,17.214,17.214,0,0,0-2.207-.095h-1.2v4.549h1.3A6.859,6.859,0,0,0,313.932,216.207Zm-.661-10.432a1.89,1.89,0,0,0-1.382-1.949,4.5,4.5,0,0,0-1.318-.156H309.5V207.9h1.069a2.842,2.842,0,0,0,2.174-.714A2,2,0,0,0,313.27,205.775Z" transform="translate(-243.485 -163.185)" fill="#fff"/>
      <path id="Pfad_348" data-name="Pfad 348" d="M111.059,198.018v8.256c0,10.259-3.032,13.215-13.561,13.215v-6.955c5.938,0,6.519-.768,6.519-8.553h-4.5v-5.976h11.547Z" transform="translate(-83.657 -162.097)" fill="#fff"/>
    </g>
  </g>
</svg>
